<svg id="facebook.svg" xmlns="http://www.w3.org/2000/svg" width="70" height="70" viewBox="0 0 70 70">
  <defs>
    <style>
      .cls-1 {
        fill: #3b5998;
      }

      .cls-2 {
        fill: #fff;
        fill-rule: evenodd;
      }
    </style>
  </defs>
  <circle id="oval" class="cls-1" cx="35" cy="35" r="35"/>
  <path id="shape" class="cls-2" d="M297.646,6281.14v-2.93a6.456,6.456,0,0,1,.061-1.02,1.974,1.974,0,0,1,.282-0.71,1.179,1.179,0,0,1,.708-0.49,5.609,5.609,0,0,1,1.3-.13h2.959V6270h-4.73q-4.105,0-5.9,1.93a8.072,8.072,0,0,0-1.791,5.68v3.53H287V6287h3.543v17h7.1v-17h4.729l0.625-5.86h-5.354Zm0,0" transform="translate(-260 -6252)"/>
</svg>
