<?xml version="1.0" encoding="UTF-8" standalone="no"?>
<svg width="70px" height="70px" viewBox="0 0 70 70" version="1.1" xmlns="http://www.w3.org/2000/svg" xmlns:xlink="http://www.w3.org/1999/xlink">
    <!-- Generator: Sketch 46.2 (44496) - http://www.bohemiancoding.com/sketch -->
    <title>insta</title>
    <desc>Created with Sketch.</desc>
    <defs></defs>
    <g id="Page-1" stroke="none" stroke-width="1" fill="none" fill-rule="evenodd">
        <g id="insta">
            <circle id="oval" fill="#833AB4" fill-rule="nonzero" cx="35" cy="35" r="35"></circle>
            <path d="M46.3717406,25.9690239 C46.3717406,24.8303044 45.4487007,23.9073398 44.3099812,23.9073398 C43.1714875,23.9073398 42.2482971,24.8303044 42.2482971,25.9690239 C42.2482971,27.1075929 43.1714875,28.030708 44.3099812,28.030708 C45.4487007,28.030708 46.3717406,27.1075929 46.3717406,25.9690239 M35.139,40.8668886 C31.9760993,40.8668886 29.4121165,38.3029058 29.4121165,35.1400051 C29.4121165,31.9771797 31.9760993,29.4131215 35.139,29.4131215 C38.3019007,29.4131215 40.8658835,31.9771797 40.8658835,35.1400051 C40.8658835,38.3029058 38.3019007,40.8668886 35.139,40.8668886 M35.139,26.3176208 C30.2665515,26.3176208 26.3165404,30.2676319 26.3165404,35.1400051 C26.3165404,40.0126042 30.2665515,43.9623894 35.139,43.9623894 C40.0114485,43.9623894 43.9613843,40.0126042 43.9613843,35.1400051 C43.9613843,30.2676319 40.0114485,26.3176208 35.139,26.3176208 M35.139,17.9595051 C30.4730437,17.9595051 29.8879824,17.9791603 28.055458,18.0628265 C26.2267742,18.1464175 24.9778803,18.4367266 23.8850981,18.8614589 C22.7552648,19.3004997 21.7972071,19.8879708 20.8420864,20.8430915 C19.8869657,21.7982122 19.2994946,22.7564205 18.8604538,23.8861032 C18.4356462,24.979036 18.1452618,26.2279299 18.0618967,28.0566137 C17.9781552,29.8890628 17.9585,30.4739735 17.9585,35.1400051 C17.9585,39.806112 17.9781552,40.3910227 18.0618967,42.2234718 C18.1452618,44.0522308 18.4356462,45.3010495 18.8604538,46.3939823 C19.2994946,47.523665 19.8869657,48.4819486 20.8420864,49.436994 C21.7972071,50.39219 22.7552648,50.9796611 23.8850981,51.4186265 C24.9778803,51.8432836 26.2267742,52.1337433 28.055458,52.217259 C29.8879824,52.3008499 30.4730437,52.3205804 35.139,52.3205804 C39.8049563,52.3205804 40.3900176,52.3008499 42.2224667,52.217259 C44.0513011,52.1337433 45.3001197,51.8432836 46.3928266,51.4186265 C47.5226599,50.9796611 48.4807929,50.39219 49.4359136,49.436994 C50.3910343,48.4819486 50.9785054,47.523665 51.4175462,46.3939823 C51.8423538,45.3010495 52.1327382,44.0522308 52.2161033,42.2234718 C52.2998448,40.3910227 52.3195,39.806112 52.3195,35.1400051 C52.3195,30.4739735 52.2998448,29.8890628 52.2161033,28.0566137 C52.1327382,26.2279299 51.8423538,24.979036 51.4175462,23.8861032 C50.9785054,22.7564205 50.3910343,21.7982122 49.4359136,20.8430915 C48.4807929,19.8879708 47.5226599,19.3004997 46.3928266,18.8614589 C45.3001197,18.4367266 44.0513011,18.1464175 42.2224667,18.0628265 C40.3900176,17.9791603 39.8049563,17.9595051 35.139,17.9595051 M35.139,21.0550059 C39.7264109,21.0550059 40.2697521,21.0725524 42.0814164,21.1551644 C43.7563982,21.2316012 44.666184,21.5115932 45.2716536,21.7467774 C46.0735242,22.0584738 46.6459339,22.4307924 47.2470357,23.0319694 C47.848288,23.6332218 48.2206819,24.2054809 48.5321523,25.0073515 C48.7674119,25.6128211 49.0473286,26.5226069 49.1238407,28.1975887 C49.2064527,30.009253 49.2239992,30.5525942 49.2239992,35.1400051 C49.2239992,39.7275666 49.2064527,40.2708325 49.1238407,42.0823462 C49.0473286,43.7575539 48.7674119,44.6672644 48.5321523,45.272734 C48.2206819,46.0745293 47.848288,46.646939 47.2470357,47.2481914 C46.6459339,47.8492931 46.0735242,48.221687 45.2716536,48.533308 C44.666184,48.7684923 43.7563982,49.0484843 42.0814164,49.1248458 C40.269978,49.207533 39.7267874,49.2250043 35.139,49.2250043 C30.5512126,49.2250043 30.008022,49.207533 28.1965836,49.1248458 C26.5216018,49.0484843 25.611816,48.7684923 25.0064217,48.533308 C24.2044758,48.221687 23.6321414,47.8492931 23.0309643,47.2481914 C22.4298626,46.646939 22.0574687,46.0745293 21.7458477,45.272734 C21.5105881,44.6672644 21.2305961,43.7575539 21.1541593,42.0823462 C21.0715473,40.2708325 21.0540761,39.7275666 21.0540761,35.1400051 C21.0540761,30.5525942 21.0715473,30.009253 21.1541593,28.1975887 C21.2305961,26.5226069 21.5105881,25.6128211 21.7458477,25.0073515 C22.0574687,24.2054809 22.4298626,23.6332218 23.0309643,23.0319694 C23.6321414,22.4307924 24.2044758,22.0584738 25.0064217,21.7467774 C25.611816,21.5115932 26.5216018,21.2316012 28.1965836,21.1551644 C30.0083232,21.0725524 30.5515891,21.0550059 35.139,21.0550059" id="Page-1" fill="#FFFFFF"></path>
        </g>
    </g>
</svg>