<svg id="line.svg" xmlns="http://www.w3.org/2000/svg" width="70" height="70" viewBox="0 0 70 70">
  <defs>
    <style>
      .cls-1 {
        fill: #00c300;
      }

      .cls-2 {
        fill: #fff;
        fill-rule: evenodd;
      }
    </style>
  </defs>
  <circle id="oval" class="cls-1" cx="35" cy="35" r="35"/>
  <path id="shape" class="cls-2" d="M728.53,6280h-2.315a0.651,0.651,0,0,0-.651.66v14.66a0.657,0.657,0,0,0,.651.66h2.315a0.657,0.657,0,0,0,.651-0.66v-14.66a0.651,0.651,0,0,0-.651-0.66m15.988,0H742.2a0.651,0.651,0,0,0-.651.66v8.71l-6.608-9.08c-0.024-.02-0.024-0.05-0.048-0.07h0a0.231,0.231,0,0,0-.048-0.05h0l-0.024-.03-0.024-.02-0.024-.02h-0.025l-0.024-.03H734.7a0.052,0.052,0,0,1-.048-0.02h-0.024c-0.024,0-.024,0-0.048-0.03H732.1a0.657,0.657,0,0,0-.651.66v14.66a0.651,0.651,0,0,0,.651.66h2.315a0.651,0.651,0,0,0,.651-0.66v-8.74l6.632,9.08a0.506,0.506,0,0,0,.168.17h0c0.025,0,.025.03,0.049,0.03h0.024a0.023,0.023,0,0,1,.024.02,0.026,0.026,0,0,1,.024.03h0.024a0.052,0.052,0,0,1,.048.02h0a0.3,0.3,0,0,0,.169.03h2.315a0.657,0.657,0,0,0,.651-0.66v-14.66a0.687,0.687,0,0,0-.675-0.66m-21.583,12.28h-6.318v-11.62a0.651,0.651,0,0,0-.651-0.66h-2.315a0.651,0.651,0,0,0-.651.66v14.63h0a0.665,0.665,0,0,0,.168.44h0a0.586,0.586,0,0,0,.434.17h9.285a0.651,0.651,0,0,0,.651-0.66v-2.35a0.6,0.6,0,0,0-.6-0.61m34.412-8.61a0.658,0.658,0,0,0,.652-0.66v-2.35a0.651,0.651,0,0,0-.652-0.66h-9.284a0.657,0.657,0,0,0-.458.19h0a0.606,0.606,0,0,0-.169.44h0v14.64h0a0.661,0.661,0,0,0,.169.44h0a0.583,0.583,0,0,0,.434.17h9.284a0.657,0.657,0,0,0,.651-0.66v-2.35a0.651,0.651,0,0,0-.651-0.66h-6.318v-2.4h6.318a0.651,0.651,0,0,0,.651-0.66v-2.35a0.651,0.651,0,0,0-.651-0.66h-6.318v-2.47h6.342Z" transform="translate(-700 -6252)"/>
</svg>
