<svg id="twitter.svg" xmlns="http://www.w3.org/2000/svg" width="70" height="70" viewBox="0 0 70 70">
  <defs>
    <style>
      .cls-1 {
        fill: #1da1f2;
      }

      .cls-2 {
        fill: #fff;
        fill-rule: evenodd;
      }
    </style>
  </defs>
  <circle id="oval" class="cls-1" cx="35" cy="35" r="35"/>
  <path id="shape" class="cls-2" d="M399.434,6299c11.321,0,17.513-9.62,17.513-17.96,0-.28,0-0.55-0.018-0.82a12.606,12.606,0,0,0,3.071-3.27,12.137,12.137,0,0,1-3.535,1,6.317,6.317,0,0,0,2.706-3.49,12.292,12.292,0,0,1-3.909,1.53,6.055,6.055,0,0,0-8.708-.28,6.438,6.438,0,0,0-1.781,6.04,17.367,17.367,0,0,1-12.685-6.6,6.422,6.422,0,0,0,1.906,8.43,5.988,5.988,0,0,1-2.794-.79v0.08a6.269,6.269,0,0,0,4.938,6.18,5.81,5.81,0,0,1-2.779.11,6.189,6.189,0,0,0,5.75,4.39,12.145,12.145,0,0,1-7.644,2.7,11.953,11.953,0,0,1-1.465-.09,17.006,17.006,0,0,0,9.434,2.83" transform="translate(-370 -6252)"/>
</svg>
